<?xml version="1.0" encoding="utf-8"?>
<svg width="348px" height="551px" viewBox="0 0 348 551" version="1.1" xmlns:xlink="http://www.w3.org/1999/xlink" xmlns="http://www.w3.org/2000/svg">
  <g id="Group-5" transform="translate(1 1)">
    <path d="M27.7966 492.662L47.6513 492.662L47.6513 511.193" id="New-shape-5-Copy-4" fill="none" fill-rule="evenodd" stroke="#808080" stroke-width="2" />
    <g id="Group-Copy-2" transform="translate(258.11133 479.1604)">
      <path d="M30.8198 32.0535C30.8198 32.0535 11.2592 22.6408 30.8198 4.25696" id="New-shape-6-Copy" fill="none" fill-rule="evenodd" stroke="#FFD000" stroke-width="2" />
      <g id="θ" fill="#FFD000">
        <path d="M0.808594 10.5044Q0.808594 3.84229 5.00977 3.84229Q9.21094 3.84229 9.21094 10.5044Q9.21094 17.1577 5.00977 17.1577Q0.808594 17.1577 0.808594 10.5044ZM2.44336 9.86279L7.57617 9.86279Q7.48828 7.11182 6.78516 6.12744Q6.08203 5.14307 4.99219 5.14307Q2.54004 5.14307 2.44336 9.86279ZM7.57617 11.1372L2.44336 11.1372Q2.54004 15.8569 5.00977 15.8569Q7.48828 15.8569 7.57617 11.1372Z" />
      </g>
    </g>
    <path d="M27.7966 365.327L27.7966 510.928" id="New-shape-Copy-3" fill="none" fill-rule="evenodd" stroke="#00FF55" stroke-width="2" />
    <path d="M29.1202 510.928L345.472 510.928" id="New-shape-2-Copy-2" fill="none" fill-rule="evenodd" stroke="#B700FF" stroke-width="2" />
    <path d="M29.1202 365.327L345.472 510.928" id="New-shape-3-Copy-3" fill="none" fill-rule="evenodd" stroke="#FF4400" stroke-width="2" />
    <g id="a" fill="#00FF55" transform="translate(0 401.0652)">
      <path d="M1.94824 21.7666Q4.1748 19.7451 6.26953 18.7637Q8.36426 17.7822 9.50684 17.7822Q9.81445 17.7822 10.0781 18.0386Q10.3418 18.2949 10.4956 18.6318Q10.6494 18.9688 10.6494 19.1299Q10.6494 19.3936 10.4443 19.5181Q10.2393 19.6426 9.72656 19.8184Q9.8291 20.0527 9.99023 20.4189Q10.1514 20.7852 10.2393 21.0122Q10.3271 21.2393 10.3271 21.415Q10.3271 21.7666 9.6167 22.7261Q8.90625 23.6855 8.62061 24.1396Q8.33496 24.5938 8.33496 25.2529Q8.33496 26.3369 9.33105 26.3369Q10.3564 26.3369 12.5391 24.418L12.5391 25.3115Q8.83301 29.4277 7.23633 29.4277Q6.66504 29.4277 6.42334 29.0542Q6.18164 28.6807 6.18164 27.9482Q6.18164 26.791 7.0166 24.5938Q4.87793 26.9668 3.83789 27.9702Q2.79785 28.9736 2.12402 28.9736Q1.80176 28.9736 1.31836 28.417Q0.834961 27.8604 0.461426 26.9741Q0.0878906 26.0879 0.0878906 25.1357Q0.0878906 24.4473 0.219727 23.9858Q0.351563 23.5244 0.732422 23.041Q1.11328 22.5576 1.94824 21.7666ZM8.96484 20.1553Q5.15625 21.8984 3.5376 23.1143Q1.91895 24.3301 1.91895 25.6191Q1.91895 26.0879 2.08008 26.3882Q2.24121 26.6885 2.51953 26.6885Q2.68066 26.6885 3.09082 26.4834Q4.62891 25.5752 5.90332 24.1177Q7.17773 22.6602 8.96484 20.1553Z" />
    </g>
    <g id="b" fill="#B700FF" transform="translate(141.63037 511.32507)">
      <path d="M9.93164 24.418L9.93164 25.3701Q8.4082 26.3369 7.5293 26.3369Q7.0459 26.3369 6.50391 26.1758Q5.18555 27.8457 4.24072 28.6221Q3.2959 29.3984 2.34375 29.3984Q1.24512 29.3984 0.651855 28.2412Q0.0585938 27.084 0.0585938 25.3701C0.0585938 23.8174 0.527344 22.1255 1.46484 20.2944Q2.87109 17.5479 4.85596 15.1528Q6.84082 12.7578 8.70117 11.1904Q10.5615 9.62305 11.2207 9.62305Q11.8506 9.62305 11.8506 10.4873Q11.8506 14.3252 2.00684 23.876Q1.97754 24.1396 1.97754 24.916Q1.97754 26.9375 3.06152 26.9375Q3.48633 26.9375 3.91846 26.5933Q4.35059 26.249 5.24414 25.2822Q4.89258 24.4912 4.89258 24.1104Q4.89258 23.3047 5.55176 22.3672Q6.21094 21.4297 7.05322 20.7485Q7.89551 20.0674 8.27637 20.0674Q8.87695 20.0674 8.87695 20.9316Q8.87695 21.5908 8.53271 22.5137Q8.18848 23.4365 7.5293 24.623Q7.77832 24.8281 7.9248 24.9233Q8.07129 25.0186 8.36426 25.0186Q9.03808 25.0186 9.93164 24.418ZM2.49023 22.2207Q3.25195 21.5615 4.021 20.6606Q4.79004 19.7598 6.26953 17.8994Q7.69043 16.1123 8.50342 14.9185Q9.31641 13.7246 9.72656 12.9336Q10.1367 12.1426 10.1367 11.8496Q10.1367 11.6299 10.0195 11.6299Q9.69727 11.6299 8.6792 12.6919Q7.66113 13.7539 6.35742 15.5996Q4.55566 18.1484 3.75 19.4375Q2.94434 20.7266 2.49023 22.2207Z" />
    </g>
    <g id="c" fill="#FF4400" transform="translate(174.05957 386.50513)">
      <path d="M9.05273 24.418L9.05273 25.3994Q7.48535 26.9375 6.49658 27.7871Q5.50781 28.6367 4.65088 29.1055Q3.79395 29.5742 2.97363 29.5742Q2.16797 29.5742 1.49414 28.937Q0.820312 28.2998 0.439453 27.2671Q0.0585938 26.2344 0.0585938 25.0771Q0.0585938 24.0811 0.498047 23.3047Q0.9375 22.5283 2.19727 21.2979Q3.69141 19.833 4.97314 19.0347Q6.25488 18.2363 6.9873 18.2363Q7.51465 18.2363 7.88086 18.6025Q8.24707 18.9688 8.24707 19.5254Q8.24707 19.9941 7.76367 20.8584Q7.28027 21.7227 6.67969 22.3599Q6.0791 22.9971 5.72754 22.9971Q5.34668 22.9971 5.34668 22.5869Q5.36133 22.4697 5.36865 22.3672Q5.37598 22.2646 5.37598 22.1621Q5.37598 21.9863 5.25146 21.9644Q5.12695 21.9424 4.95117 22.0742Q3.48633 23.0996 2.94434 23.5171Q2.40234 23.9346 2.0874 24.3594Q1.77246 24.7842 1.77246 25.2529Q1.77246 26.1172 2.3291 26.6592Q2.88574 27.2012 3.7793 27.2012Q4.70215 27.2012 5.99854 26.4907Q7.29492 25.7803 9.05273 24.418Z" />
    </g>
    <path d="M27.7966 313.704C27.7966 313.704 37.2094 294.144 55.5932 313.704" id="New-shape-6-Copy" fill="none" fill-rule="evenodd" stroke="#FFD000" stroke-width="2" />
    <path d="M174.721 47.6512L29.1202 47.6512" id="New-shape-Copy-4" fill="none" fill-rule="evenodd" stroke="#00FF55" stroke-width="2" />
    <path d="M175.371 48.9695L29.7939 365.332" id="New-shape-3-Copy-4" fill="none" fill-rule="evenodd" stroke="#FF4400" stroke-width="2" />
    <path d="M27.7966 365.327L27.7966 48.9749" id="New-shape-4-Copy" fill="none" fill-rule="evenodd" stroke="#B700FF" stroke-width="2" />
    <path d="M48.313 49.6368L48.313 69.4915L29.782 69.4915" id="New-shape-5-Copy-5" fill="none" fill-rule="evenodd" stroke="#808080" stroke-width="2" />
    <g id="θ" fill="#FFD000" transform="matrix(1.2675908E-06 1 -1 1.2675908E-06 55.855957 280.6032)">
      <path d="M0.808594 10.5044Q0.808594 3.84229 5.00977 3.84229Q9.21094 3.84229 9.21094 10.5044Q9.21094 17.1577 5.00977 17.1577Q0.808594 17.1577 0.808594 10.5044ZM2.44336 9.86279L7.57617 9.86279Q7.48828 7.11182 6.78516 6.12744Q6.08203 5.14307 4.99219 5.14307Q2.54004 5.14307 2.44336 9.86279ZM7.57617 11.1372L2.44336 11.1372Q2.54004 15.8569 5.00977 15.8569Q7.48828 15.8569 7.57617 11.1372Z" />
    </g>
    <g id="b" fill="#B700FF" transform="translate(1.3237305 122.04028)">
      <path d="M9.93164 24.418L9.93164 25.3701Q8.4082 26.3369 7.5293 26.3369Q7.0459 26.3369 6.50391 26.1758Q5.18555 27.8457 4.24072 28.6221Q3.2959 29.3984 2.34375 29.3984Q1.24512 29.3984 0.651855 28.2412Q0.0585938 27.084 0.0585938 25.3701C0.0585938 23.8174 0.527344 22.1255 1.46484 20.2944Q2.87109 17.5479 4.85596 15.1528Q6.84082 12.7578 8.70117 11.1904Q10.5615 9.62305 11.2207 9.62305Q11.8506 9.62305 11.8506 10.4873Q11.8506 14.3252 2.00684 23.876Q1.97754 24.1396 1.97754 24.916Q1.97754 26.9375 3.06152 26.9375Q3.48633 26.9375 3.91846 26.5933Q4.35059 26.249 5.24414 25.2822Q4.89258 24.4912 4.89258 24.1104Q4.89258 23.3047 5.55176 22.3672Q6.21094 21.4297 7.05322 20.7485Q7.89551 20.0674 8.27637 20.0674Q8.87695 20.0674 8.87695 20.9316Q8.87695 21.5908 8.53271 22.5137Q8.18848 23.4365 7.5293 24.623Q7.77832 24.8281 7.9248 24.9233Q8.07129 25.0186 8.36426 25.0186Q9.03808 25.0186 9.93164 24.418ZM2.49023 22.2207Q3.25195 21.5615 4.021 20.6606Q4.79004 19.7598 6.26953 17.8994Q7.69043 16.1123 8.50342 14.9185Q9.31641 13.7246 9.72656 12.9336Q10.1367 12.1426 10.1367 11.8496Q10.1367 11.6299 10.0195 11.6299Q9.69727 11.6299 8.6792 12.6919Q7.66113 13.7539 6.35742 15.5996Q4.55566 18.1484 3.75 19.4375Q2.94434 20.7266 2.49023 22.2207Z" />
    </g>
    <g id="c" fill="#FF4400" transform="translate(130.37915 170.75055)">
      <path d="M9.05273 24.418L9.05273 25.3994Q7.48535 26.9375 6.49658 27.7871Q5.50781 28.6367 4.65088 29.1055Q3.79395 29.5742 2.97363 29.5742Q2.16797 29.5742 1.49414 28.937Q0.820312 28.2998 0.439453 27.2671Q0.0585938 26.2344 0.0585938 25.0771Q0.0585938 24.0811 0.498047 23.3047Q0.9375 22.5283 2.19727 21.2979Q3.69141 19.833 4.97314 19.0347Q6.25488 18.2363 6.9873 18.2363Q7.51465 18.2363 7.88086 18.6025Q8.24707 18.9688 8.24707 19.5254Q8.24707 19.9941 7.76367 20.8584Q7.28027 21.7227 6.67969 22.3599Q6.0791 22.9971 5.72754 22.9971Q5.34668 22.9971 5.34668 22.5869Q5.36133 22.4697 5.36865 22.3672Q5.37598 22.2646 5.37598 22.1621Q5.37598 21.9863 5.25146 21.9644Q5.12695 21.9424 4.95117 22.0742Q3.48633 23.0996 2.94434 23.5171Q2.40234 23.9346 2.0874 24.3594Q1.77246 24.7842 1.77246 25.2529Q1.77246 26.1172 2.3291 26.6592Q2.88574 27.2012 3.7793 27.2012Q4.70215 27.2012 5.99854 26.4907Q7.29492 25.7803 9.05273 24.418Z" />
    </g>
    <g id="a" fill="#00FF55" transform="translate(86.698975 0)">
      <path d="M1.94824 21.7666Q4.1748 19.7451 6.26953 18.7637Q8.36426 17.7822 9.50684 17.7822Q9.81445 17.7822 10.0781 18.0386Q10.3418 18.2949 10.4956 18.6318Q10.6494 18.9688 10.6494 19.1299Q10.6494 19.3936 10.4443 19.5181Q10.2393 19.6426 9.72656 19.8184Q9.8291 20.0527 9.99023 20.4189Q10.1514 20.7852 10.2393 21.0122Q10.3271 21.2393 10.3271 21.415Q10.3271 21.7666 9.6167 22.7261Q8.90625 23.6855 8.62061 24.1396Q8.33496 24.5938 8.33496 25.2529Q8.33496 26.3369 9.33105 26.3369Q10.3564 26.3369 12.5391 24.418L12.5391 25.3115Q8.83301 29.4277 7.23633 29.4277Q6.66504 29.4277 6.42334 29.0542Q6.18164 28.6807 6.18164 27.9482Q6.18164 26.791 7.0166 24.5938Q4.87793 26.9668 3.83789 27.9702Q2.79785 28.9736 2.12402 28.9736Q1.80176 28.9736 1.31836 28.417Q0.834961 27.8604 0.461426 26.9741Q0.0878906 26.0879 0.0878906 25.1357Q0.0878906 24.4473 0.219727 23.9858Q0.351563 23.5244 0.732422 23.041Q1.11328 22.5576 1.94824 21.7666ZM8.96484 20.1553Q5.15625 21.8984 3.5376 23.1143Q1.91895 24.3301 1.91895 25.6191Q1.91895 26.0879 2.08008 26.3882Q2.24121 26.6885 2.51953 26.6885Q2.68066 26.6885 3.09082 26.4834Q4.62891 25.5752 5.90332 24.1177Q7.17773 22.6602 8.96484 20.1553Z" />
    </g>
    <path d="M174.06 48.9749L345.472 511.193" id="New-shape-7" fill="none" fill-rule="evenodd" stroke="#FF4400" stroke-opacity="0.2509804" stroke-width="2" />
  </g>
</svg>